<?xml version="1.0" encoding="utf-8"?>
<!-- Generator: Adobe Illustrator 16.0.4, SVG Export Plug-In . SVG Version: 6.00 Build 0)  -->
<!DOCTYPE svg PUBLIC "-//W3C//DTD SVG 1.1//EN" "http://www.w3.org/Graphics/SVG/1.1/DTD/svg11.dtd">
<svg version="1.1" id="Layer_1" xmlns="http://www.w3.org/2000/svg" xmlns:xlink="http://www.w3.org/1999/xlink" x="0px" y="0px"
	 width="547.945px" height="148.022px" viewBox="0 0 547.945 148.022" enable-background="new 0 0 547.945 148.022"
	 xml:space="preserve">
<g>
	<path fill="#FFFFFF" d="M371.584,111.049v2.48l-3.184,0.547v17.539c0,2.539-0.804,4.555-2.412,6.045
		c-1.608,1.492-3.694,2.236-6.26,2.236c-2.734,0-4.909-0.693-6.523-2.08s-2.39-3.4-2.324-6.045l0.039-0.117h3.691
		c0,1.758,0.446,3.07,1.338,3.936c0.892,0.867,2.151,1.299,3.779,1.299c1.419,0,2.578-0.479,3.477-1.436s1.348-2.236,1.348-3.838
		v-17.539l-3.184-0.547v-2.48h7.031H371.584z"/>
	<path fill="#FFFFFF" d="M389.592,136.362c-0.664,1.133-1.521,2.006-2.568,2.617c-1.048,0.613-2.256,0.918-3.623,0.918
		c-2.292,0-4.082-0.734-5.371-2.207c-1.289-1.471-1.934-3.762-1.934-6.875v-9.434l-2.422-0.547v-2.48h2.422h3.848v12.5
		c0,2.254,0.332,3.803,0.996,4.648c0.664,0.848,1.699,1.27,3.105,1.27c1.367,0,2.497-0.275,3.389-0.83
		c0.892-0.553,1.565-1.338,2.021-2.354v-12.207l-2.832-0.547v-2.48h2.832h3.848v18.125l2.422,0.547v2.461h-5.879L389.592,136.362z"
		/>
	<path fill="#FFFFFF" d="M413.01,136.967c-0.69,0.965-1.533,1.693-2.529,2.188c-0.996,0.496-2.151,0.742-3.467,0.742
		c-2.578,0-4.593-0.934-6.045-2.803c-1.452-1.867-2.178-4.326-2.178-7.373v-0.41c0-3.398,0.726-6.139,2.178-8.223
		c1.452-2.082,3.479-3.125,6.084-3.125c1.25,0,2.354,0.232,3.311,0.693c0.957,0.463,1.774,1.131,2.451,2.002v-8.613l-3.184-0.547
		v-2.48h3.184h3.848v27.461l3.184,0.547v2.461h-6.523L413.01,136.967z M402.639,129.721c0,2.123,0.437,3.828,1.309,5.117
		s2.22,1.934,4.043,1.934c1.146,0,2.109-0.26,2.891-0.781c0.781-0.52,1.426-1.256,1.934-2.207v-9.805
		c-0.495-0.885-1.14-1.588-1.934-2.109c-0.794-0.52-1.745-0.781-2.852-0.781c-1.836,0-3.193,0.762-4.072,2.285
		s-1.318,3.504-1.318,5.938V129.721z"/>
	<path fill="#FFFFFF" d="M422.795,129.311c0-3.398,0.742-6.139,2.227-8.223c1.484-2.082,3.535-3.125,6.152-3.125
		c1.328,0,2.493,0.262,3.496,0.781c1.003,0.521,1.843,1.277,2.52,2.266l0.352-2.656h3.242v20.859c0,2.734-0.762,4.887-2.285,6.455
		c-1.523,1.57-3.691,2.354-6.504,2.354c-1.016,0-2.116-0.139-3.301-0.42c-1.185-0.279-2.227-0.66-3.125-1.143l0.996-2.988
		c0.716,0.379,1.562,0.691,2.539,0.938c0.977,0.248,1.927,0.371,2.852,0.371c1.719,0,2.979-0.48,3.779-1.445
		c0.801-0.963,1.201-2.336,1.201-4.121v-2.012c-0.69,0.887-1.517,1.557-2.48,2.012c-0.964,0.457-2.07,0.684-3.32,0.684
		c-2.591,0-4.629-0.938-6.113-2.812s-2.227-4.328-2.227-7.363V129.311z M426.643,129.721c0,2.123,0.449,3.828,1.348,5.117
		s2.266,1.934,4.102,1.934c1.159,0,2.129-0.264,2.91-0.791s1.426-1.271,1.934-2.236v-9.727c-0.495-0.898-1.14-1.611-1.934-2.139
		s-1.751-0.791-2.871-0.791c-1.836,0-3.21,0.77-4.121,2.305c-0.911,1.537-1.367,3.51-1.367,5.918V129.721z"/>
	<path fill="#FFFFFF" d="M445.413,137.026l3.184-0.547v-15.098l-3.184-0.547v-2.48h7.031v18.125l3.184,0.547v2.461h-10.215V137.026z
		 M452.444,112.944h-3.848v-3.926h3.848V112.944z"/>
	<path fill="#FFFFFF" d="M457.991,137.026l3.184-0.547v-15.098l-3.184-0.547v-2.48h6.621l0.273,3.145
		c0.703-1.119,1.585-1.988,2.646-2.607c1.062-0.617,2.269-0.928,3.623-0.928c2.278,0,4.043,0.668,5.293,2.002
		c1.25,1.336,1.875,3.396,1.875,6.182v10.332l3.184,0.547v2.461h-10.215v-2.461l3.184-0.547v-10.254
		c0-1.861-0.368-3.184-1.104-3.965s-1.858-1.172-3.369-1.172c-1.106,0-2.087,0.268-2.939,0.801
		c-0.853,0.535-1.533,1.264-2.041,2.188v12.402l3.184,0.547v2.461h-10.215V137.026z"/>
	<path fill="#FFFFFF" d="M484.124,129.311c0-3.398,0.742-6.139,2.227-8.223c1.484-2.082,3.535-3.125,6.152-3.125
		c1.328,0,2.493,0.262,3.496,0.781c1.003,0.521,1.843,1.277,2.52,2.266l0.352-2.656h3.242v20.859c0,2.734-0.762,4.887-2.285,6.455
		c-1.523,1.57-3.691,2.354-6.504,2.354c-1.016,0-2.116-0.139-3.301-0.42c-1.185-0.279-2.227-0.66-3.125-1.143l0.996-2.988
		c0.716,0.379,1.562,0.691,2.539,0.938c0.977,0.248,1.927,0.371,2.852,0.371c1.719,0,2.979-0.48,3.779-1.445
		c0.801-0.963,1.201-2.336,1.201-4.121v-2.012c-0.69,0.887-1.517,1.557-2.48,2.012c-0.964,0.457-2.07,0.684-3.32,0.684
		c-2.591,0-4.629-0.938-6.113-2.812s-2.227-4.328-2.227-7.363V129.311z M487.971,129.721c0,2.123,0.449,3.828,1.348,5.117
		s2.266,1.934,4.102,1.934c1.159,0,2.129-0.264,2.91-0.791s1.426-1.271,1.934-2.236v-9.727c-0.495-0.898-1.14-1.611-1.934-2.139
		s-1.751-0.791-2.871-0.791c-1.836,0-3.21,0.77-4.121,2.305c-0.911,1.537-1.367,3.51-1.367,5.918V129.721z"/>
</g>
<g>
	<path fill="#DE8204" d="M0,53.719c1.406,0,2.835-0.081,4.289-0.246c1.452-0.164,2.753-0.562,3.902-1.195
		c1.148-0.633,2.097-1.582,2.848-2.848c0.749-1.266,1.125-2.999,1.125-5.203c0-2.531-0.422-4.862-1.266-6.996
		c-0.844-2.133-1.828-4.184-2.953-6.152c-1.079-1.922-2.039-3.891-2.883-5.906c-0.844-2.015-1.266-4.242-1.266-6.68
		c0-1.733,0.341-3.656,1.021-5.766C5.5,10.617,6.777,8.648,8.652,6.82c1.874-1.828,4.452-3.351,7.732-4.57
		c3.281-1.219,7.475-1.828,12.585-1.828h2.391V9.07h-0.844c-5.157,0-9,0.844-11.531,2.531s-3.797,4.055-3.797,7.102
		c0,2.016,0.339,3.879,1.02,5.59c0.679,1.712,1.487,3.435,2.426,5.168c0.984,1.782,1.839,3.716,2.566,5.801
		c0.726,2.086,1.09,4.512,1.09,7.277c0,2.531-0.376,4.735-1.125,6.609c-0.75,1.875-1.642,3.422-2.672,4.641
		c-1.032,1.22-2.099,2.169-3.199,2.848c-1.102,0.68-1.981,1.09-2.637,1.23v0.281c0.656,0.141,1.535,0.552,2.637,1.23
		c1.101,0.68,2.167,1.629,3.199,2.848c1.03,1.22,1.921,2.767,2.672,4.641c0.749,1.875,1.125,4.078,1.125,6.609
		c0,2.626-0.316,4.887-0.949,6.785s-1.371,3.668-2.215,5.309c-0.984,1.875-1.888,3.751-2.707,5.625
		c-0.821,1.875-1.23,3.913-1.23,6.118c0,3.047,1.276,5.414,3.832,7.102c2.554,1.688,6.386,2.531,11.496,2.531h0.844v8.648h-2.391
		c-5.11,0-9.304-0.609-12.585-1.828c-3.28-1.221-5.858-2.742-7.732-4.57c-1.875-1.828-3.152-3.787-3.833-5.871
		c-0.681-2.086-1.021-3.973-1.021-5.66c0-1.501,0.141-2.873,0.422-4.114s0.656-2.414,1.125-3.516
		c0.468-1.101,0.984-2.18,1.547-3.234s1.148-2.12,1.758-3.199c0.984-1.733,1.816-3.562,2.496-5.484
		c0.679-1.922,1.02-4.031,1.02-6.328c0-2.203-0.376-3.938-1.125-5.203c-0.75-1.266-1.7-2.215-2.848-2.848
		c-1.149-0.633-2.45-1.03-3.902-1.195C2.835,62.379,1.406,62.297,0,62.297V53.719z"/>
	<path fill="#FFFFFF" d="M80.578,94.641c-0.938,0.375-2.368,0.727-4.289,1.055c-1.923,0.327-4.219,0.516-6.891,0.562
		c-3.516,0-6.563-0.434-9.141-1.301c-2.579-0.867-4.723-2.109-6.434-3.727c-1.712-1.617-2.988-3.574-3.832-5.871
		c-0.844-2.296-1.266-4.852-1.266-7.664V37.055H35.859v-9.352h12.867V9.422h10.898v18.281h19.969v9.352H59.625v38.953
		c0,1.547,0.222,2.978,0.668,4.289c0.445,1.312,1.148,2.45,2.109,3.41c0.96,0.961,2.19,1.712,3.691,2.25
		c1.5,0.539,3.305,0.809,5.414,0.809c1.452,0,2.988-0.116,4.605-0.352c1.617-0.234,3.104-0.538,4.465-0.914V94.641z"/>
	<path fill="#FFFFFF" d="M127.055,86.766c3.609,0,6.901-0.292,9.879-0.879c2.976-0.586,5.941-1.417,8.895-2.496v9.07
		c-2.391,1.172-5.344,2.098-8.859,2.777c-3.516,0.679-7.29,1.02-11.32,1.02c-4.781,0-9.271-0.609-13.465-1.828
		c-4.196-1.219-7.828-3.188-10.895-5.906c-3.067-2.718-5.47-6.269-7.207-10.652c-1.737-4.383-2.605-9.668-2.605-15.855
		c0-6.093,0.842-11.379,2.524-15.855c1.684-4.476,3.928-8.215,6.734-11.215c2.806-2.999,6.031-5.249,9.679-6.75
		c3.647-1.5,7.458-2.25,11.434-2.25c3.74,0,7.236,0.622,10.485,1.863c3.25,1.242,6.067,3.199,8.452,5.871
		c2.384,2.672,4.266,6.117,5.646,10.336s2.07,9.281,2.07,15.188c0,0.562,0,1.044,0,1.441c0,0.398-0.024,1.301-0.07,2.707h-46.125
		c0,4.266,0.644,7.887,1.934,10.863c1.289,2.978,3.046,5.391,5.273,7.242c2.226,1.853,4.839,3.199,7.84,4.043
		C120.351,86.344,123.585,86.766,127.055,86.766z M121.306,35.297c-2.516,0-4.853,0.492-7.013,1.477s-4.046,2.32-5.659,4.008
		c-1.614,1.688-2.919,3.668-3.916,5.941c-0.998,2.274-1.614,4.7-1.851,7.277h34.172c0-2.625-0.345-5.073-1.033-7.348
		c-0.688-2.273-1.696-4.254-3.026-5.941c-1.329-1.688-2.966-3.012-4.912-3.973C126.122,35.778,123.868,35.297,121.306,35.297z"/>
	<path fill="#FFFFFF" d="M177.539,36.984h0.211c1.218-1.547,2.566-2.988,4.043-4.324s3.129-2.507,4.957-3.516
		c1.828-1.008,3.832-1.793,6.012-2.355s4.558-0.844,7.137-0.844c3.046,0,5.906,0.422,8.578,1.266s4.992,2.204,6.961,4.078
		c1.969,1.875,3.526,4.324,4.676,7.348c1.148,3.023,1.723,6.739,1.723,11.145V94.5h-10.898V51.539c0-5.766-1.114-9.914-3.34-12.445
		c-2.227-2.531-5.474-3.797-9.738-3.797c-3.751,0-7.383,1.044-10.898,3.129c-3.516,2.086-6.539,4.957-9.07,8.613V94.5h-10.898
		V27.703h8.438L177.539,36.984z"/>
	<path fill="#FFFFFF" d="M244.688,94.5V80.789h13.359V94.5H244.688z"/>
	<path fill="#FFFFFF" d="M293.906,109.407c0,6.141-1.758,10.934-5.273,14.379s-9.094,5.168-16.734,5.168
		c-2.015,0-3.948-0.152-5.801-0.457c-1.852-0.307-3.223-0.623-4.113-0.949v-9.281c1.406,0.375,2.812,0.668,4.219,0.879
		s2.859,0.316,4.359,0.316c4.453,0,7.64-0.914,9.562-2.742c1.921-1.828,2.882-4.688,2.882-8.578V27.703h10.898V109.407z
		 M282.726,12.164V0h10.898v12.164H282.726z"/>
	<path fill="#FFFFFF" d="M354.796,87.117h-0.281c-0.891,1.125-2.016,2.239-3.375,3.34c-1.359,1.102-2.93,2.086-4.711,2.953
		c-1.781,0.868-3.727,1.558-5.836,2.074c-2.109,0.516-4.359,0.773-6.75,0.773c-3.234,0-6.199-0.481-8.895-1.441
		s-5.016-2.366-6.961-4.219c-1.945-1.852-3.457-4.113-4.535-6.785s-1.617-5.695-1.617-9.07c0-3.328,0.598-6.304,1.793-8.93
		c1.195-2.625,2.871-4.852,5.027-6.68s4.746-3.234,7.77-4.219s6.363-1.477,10.02-1.477c3.469,0.047,6.68,0.352,9.633,0.914
		s5.578,1.266,7.875,2.109h0.281V51.82c0-1.828-0.117-3.445-0.352-4.852s-0.633-2.647-1.195-3.727
		c-1.219-2.25-3.164-4.113-5.836-5.59s-6.281-2.215-10.828-2.215c-3.375,0-6.551,0.316-9.527,0.949s-5.941,1.512-8.895,2.637v-9.141
		c1.125-0.562,2.449-1.09,3.973-1.582s3.129-0.914,4.816-1.266s3.469-0.621,5.344-0.809c1.875-0.187,3.75-0.281,5.625-0.281
		c6.75,0,12.27,1.195,16.559,3.586s7.371,5.555,9.246,9.492c0.703,1.501,1.207,3.153,1.512,4.957
		c0.305,1.805,0.457,3.786,0.457,5.941V94.5h-9.141L354.796,87.117z M354.234,65.18c-2.006-0.562-4.387-1.101-7.139-1.617
		c-2.754-0.516-5.787-0.797-9.1-0.844c-4.619,0-8.236,0.984-10.85,2.953s-3.92,4.992-3.92,9.07c0,2.063,0.326,3.867,0.98,5.414
		c0.652,1.547,1.551,2.824,2.695,3.832c1.143,1.009,2.496,1.758,4.059,2.25s3.232,0.738,5.004,0.738c2.334,0,4.504-0.34,6.51-1.02
		c2.006-0.679,3.791-1.487,5.355-2.426c1.562-0.938,2.893-1.874,3.99-2.812c1.096-0.938,1.9-1.663,2.414-2.18V65.18z"/>
	<path fill="#FFFFFF" d="M408.761,83.461c1.611-4.875,3.797-11.085,6.549-18.633l13.385-37.125h10.898L414.341,94.5h-11.301
		l-25.252-66.797h10.898l13.289,37.125c2.639,7.312,4.807,13.524,6.502,18.633H408.761z"/>
	<path fill="#FFFFFF" d="M491.835,87.117h-0.281c-0.891,1.125-2.016,2.239-3.375,3.34c-1.359,1.102-2.93,2.086-4.711,2.953
		c-1.781,0.868-3.727,1.558-5.836,2.074c-2.109,0.516-4.359,0.773-6.75,0.773c-3.234,0-6.199-0.481-8.895-1.441
		s-5.016-2.366-6.961-4.219c-1.945-1.852-3.457-4.113-4.535-6.785s-1.617-5.695-1.617-9.07c0-3.328,0.598-6.304,1.793-8.93
		c1.195-2.625,2.871-4.852,5.027-6.68s4.746-3.234,7.77-4.219s6.363-1.477,10.02-1.477c3.469,0.047,6.68,0.352,9.633,0.914
		s5.578,1.266,7.875,2.109h0.281V51.82c0-1.828-0.117-3.445-0.352-4.852s-0.633-2.647-1.195-3.727
		c-1.219-2.25-3.164-4.113-5.836-5.59s-6.281-2.215-10.828-2.215c-3.375,0-6.551,0.316-9.527,0.949s-5.941,1.512-8.895,2.637v-9.141
		c1.125-0.562,2.449-1.09,3.973-1.582s3.129-0.914,4.816-1.266s3.469-0.621,5.344-0.809c1.875-0.187,3.75-0.281,5.625-0.281
		c6.75,0,12.27,1.195,16.559,3.586s7.371,5.555,9.246,9.492c0.703,1.501,1.207,3.153,1.512,4.957
		c0.305,1.805,0.457,3.786,0.457,5.941V94.5h-9.141L491.835,87.117z M491.273,65.18c-2.006-0.562-4.387-1.101-7.139-1.617
		c-2.754-0.516-5.787-0.797-9.1-0.844c-4.619,0-8.236,0.984-10.85,2.953s-3.92,4.992-3.92,9.07c0,2.063,0.326,3.867,0.98,5.414
		c0.652,1.547,1.551,2.824,2.695,3.832c1.143,1.009,2.496,1.758,4.059,2.25s3.232,0.738,5.004,0.738c2.334,0,4.504-0.34,6.51-1.02
		c2.006-0.679,3.791-1.487,5.355-2.426c1.562-0.938,2.893-1.874,3.99-2.812c1.096-0.938,1.9-1.663,2.414-2.18V65.18z"/>
	<path fill="#DE8204" d="M547.945,62.297c-1.406,0-2.836,0.082-4.289,0.246c-1.453,0.165-2.754,0.562-3.902,1.195
		s-2.098,1.582-2.848,2.848s-1.125,3-1.125,5.203c0,2.297,0.34,4.406,1.02,6.328c0.68,1.923,1.512,3.751,2.496,5.484
		c0.609,1.079,1.195,2.145,1.758,3.199s1.078,2.134,1.547,3.234c0.469,1.102,0.844,2.274,1.125,3.516s0.422,2.612,0.422,4.114
		c0,1.688-0.342,3.574-1.021,5.66c-0.682,2.084-1.959,4.043-3.834,5.871s-4.451,3.35-7.73,4.57
		c-3.281,1.219-7.477,1.828-12.586,1.828h-2.391v-8.648h0.844c5.109,0,8.941-0.844,11.496-2.531s3.832-4.055,3.832-7.102
		c0-2.205-0.41-4.243-1.23-6.118c-0.82-1.874-1.723-3.75-2.707-5.625c-0.844-1.641-1.582-3.41-2.215-5.309s-0.949-4.159-0.949-6.785
		c0-2.531,0.375-4.734,1.125-6.609c0.75-1.874,1.641-3.421,2.672-4.641c1.031-1.219,2.098-2.168,3.199-2.848
		c1.102-0.679,1.98-1.09,2.637-1.23v-0.281c-0.656-0.141-1.535-0.551-2.637-1.23c-1.102-0.679-2.168-1.628-3.199-2.848
		c-1.031-1.219-1.922-2.766-2.672-4.641c-0.75-1.874-1.125-4.078-1.125-6.609c0-2.766,0.363-5.191,1.09-7.277
		c0.727-2.085,1.582-4.019,2.566-5.801c0.938-1.733,1.746-3.456,2.426-5.168c0.68-1.711,1.02-3.574,1.02-5.59
		c0-3.047-1.266-5.414-3.797-7.102s-6.375-2.531-11.531-2.531h-0.844V0.422h2.391c5.109,0,9.305,0.609,12.586,1.828
		c3.279,1.22,5.855,2.742,7.73,4.57s3.152,3.797,3.834,5.906c0.68,2.109,1.021,4.032,1.021,5.766c0,2.438-0.422,4.665-1.266,6.68
		c-0.844,2.016-1.805,3.984-2.883,5.906c-1.125,1.969-2.109,4.02-2.953,6.152c-0.844,2.134-1.266,4.465-1.266,6.996
		c0,2.204,0.375,3.938,1.125,5.203s1.699,2.215,2.848,2.848s2.449,1.031,3.902,1.195c1.453,0.165,2.883,0.246,4.289,0.246V62.297z"
		/>
</g>
<g>
</g>
<g>
</g>
<g>
</g>
<g>
</g>
<g>
</g>
<g>
</g>
<g>
</g>
<g>
</g>
<g>
</g>
<g>
</g>
<g>
</g>
<g>
</g>
<g>
</g>
<g>
</g>
<g>
</g>
</svg>
