<?xml version="1.0" encoding="UTF-8" standalone="no"?>
<!-- Created with Inkscape (http://www.inkscape.org/) -->
<svg xmlns:dc="http://purl.org/dc/elements/1.1/" xmlns:cc="http://creativecommons.org/ns#" xmlns:rdf="http://www.w3.org/1999/02/22-rdf-syntax-ns#" xmlns:svg="http://www.w3.org/2000/svg" xmlns="http://www.w3.org/2000/svg" xmlns:sodipodi="http://sodipodi.sourceforge.net/DTD/sodipodi-0.dtd" xmlns:inkscape="http://www.inkscape.org/namespaces/inkscape" width="576.59375" height="158.311" id="svg2" version="1.1" inkscape:version="0.48.4 r9939" sodipodi:docname="drawing_1.svg">
  <defs id="defs4"/>
  <sodipodi:namedview id="base" pagecolor="#ffffff" bordercolor="#666666" borderopacity="1.0" inkscape:pageopacity="0.0" inkscape:pageshadow="2" inkscape:zoom="1" inkscape:cx="168.83576" inkscape:cy="97.330626" inkscape:document-units="px" inkscape:current-layer="layer1" showgrid="false" fit-margin-top="10" fit-margin-bottom="10" fit-margin-left="10" fit-margin-right="10" inkscape:window-width="1920" inkscape:window-height="1027" inkscape:window-x="0" inkscape:window-y="0" inkscape:window-maximized="1"/>
  <metadata id="metadata7">
    <rdf:RDF>
      <cc:Work rdf:about="">
        <dc:format>image/svg+xml</dc:format>
        <dc:type rdf:resource="http://purl.org/dc/dcmitype/StillImage"/>
        <dc:title/>
      </cc:Work>
    </rdf:RDF>
  </metadata>
  <g inkscape:label="Layer 1" inkscape:groupmode="layer" id="layer1" transform="translate(-111.77254,-295.33932)">
    <g style="font-size:40px;font-style:normal;font-variant:normal;font-weight:normal;font-stretch:normal;line-height:125%;letter-spacing:0px;word-spacing:0px;fill:#000000;fill-opacity:1;stroke:none;font-family:Source Sans Pro;-inkscape-font-specification:Source Sans Pro" id="text2985">
      <path d="m 121.77254,359.05807 c 1.40624,5e-5 2.83592,-0.082 4.28906,-0.24609 1.45311,-0.16402 2.75389,-0.56246 3.90234,-1.19531 1.14842,-0.63277 2.09764,-1.58199 2.84766,-2.84766 0.74998,-1.26558 1.12498,-2.99995 1.125,-5.20312 -2e-5,-2.5312 -0.4219,-4.86323 -1.26563,-6.9961 -0.84376,-2.13275 -1.82814,-4.18353 -2.95312,-6.15234 -1.07814,-1.92181 -2.03908,-3.89056 -2.88281,-5.90625 -0.84377,-2.01555 -1.26564,-4.24211 -1.26563,-6.67969 -1e-5,-1.73429 0.32811,-3.65617 0.98438,-5.76562 0.65623,-2.10929 1.8867,-4.07804 3.6914,-5.90625 1.80467,-1.82804 4.3242,-3.35147 7.5586,-4.57032 3.23434,-1.21865 7.40622,-1.82803 12.51562,-1.82812 l 2.39063,0 0,8.64844 -0.84375,0 c -5.15629,8e-5 -9.00003,0.84383 -11.53125,2.53125 -2.53128,1.68758 -3.7969,4.05476 -3.79688,7.10156 -2e-5,2.0157 0.33982,3.87898 1.01953,5.58984 0.67967,1.71101 1.48826,3.43366 2.42578,5.16797 0.98435,1.78132 1.83982,3.71491 2.56641,5.80078 0.72653,2.086 1.08981,4.51178 1.08984,7.27735 -3e-5,2.5313 -0.37503,4.73442 -1.125,6.60937 -0.75002,1.87505 -1.64065,3.42192 -2.67187,4.64063 -1.03128,1.21879 -2.09768,2.168 -3.19922,2.84765 -1.10158,0.67973 -1.98049,1.08988 -2.63672,1.23047 l 0,0.28125 c 0.65623,0.14066 1.53514,0.55082 2.63672,1.23047 1.10154,0.67972 2.16794,1.62894 3.19922,2.84766 1.03122,1.21878 1.92185,2.76565 2.67187,4.64062 0.74997,1.87503 1.12497,4.07815 1.125,6.60938 -3e-5,2.62502 -0.31643,4.88673 -0.94921,6.78515 -0.63285,1.89845 -1.37113,3.66798 -2.21485,5.3086 -0.9844,1.875 -1.88674,3.75 -2.70703,5.625 -0.82034,1.875 -1.23049,3.91406 -1.23047,6.11718 -2e-5,3.04687 1.27732,5.41406 3.83203,7.10157 2.55466,1.68749 6.38669,2.53124 11.4961,2.53125 l 0.84375,0 0,8.64843 -2.39063,0 c -5.1094,-2e-5 -9.28128,-0.60939 -12.51562,-1.82812 -3.2344,-1.21877 -5.75393,-2.7422 -7.5586,-4.57031 -1.8047,-1.82814 -3.03517,-3.78517 -3.6914,-5.8711 -0.65627,-2.08594 -0.98439,-3.97266 -0.98438,-5.66015 -1e-5,-1.5 0.14061,-2.8711 0.42188,-4.11328 0.28123,-1.24219 0.65623,-2.41406 1.125,-3.51563 0.46873,-1.10156 0.98436,-2.17968 1.54687,-3.23437 0.56249,-1.05468 1.14842,-2.12109 1.75781,-3.19922 0.98436,-1.73436 1.81639,-3.56249 2.4961,-5.48438 0.67967,-1.92185 1.01951,-4.03123 1.01953,-6.32812 -2e-5,-2.2031 -0.37502,-3.93748 -1.125,-5.20313 -0.75002,-1.26559 -1.69924,-2.21481 -2.84766,-2.84765 -1.14845,-0.63278 -2.44923,-1.03122 -3.90234,-1.19532 -1.45314,-0.16403 -2.88282,-0.24606 -4.28906,-0.24609 z" style="fill:#3590e6;fill-opacity:1" id="path3969"/>
      <path d="m 202.42097,399.97995 c -0.93754,0.375 -2.36723,0.72656 -4.28906,1.05469 -1.92191,0.32812 -4.21879,0.51562 -6.89062,0.5625 -3.51566,0 -6.56253,-0.4336 -9.14063,-1.30078 -2.57815,-0.86719 -4.72267,-2.10938 -6.43359,-3.72657 -1.71096,-1.61718 -2.9883,-3.57421 -3.83203,-5.87109 -0.84377,-2.29686 -1.26564,-4.85155 -1.26563,-7.66406 l 0,-40.64063 -12.86719,0 0,-9.35156 12.86719,0 0,-18.28125 10.89844,0 0,18.28125 19.96875,0 0,9.35156 -19.96875,0 0,38.95313 c -3e-5,1.54689 0.22263,2.97658 0.66797,4.28906 0.44529,1.31251 1.14841,2.44923 2.10937,3.41016 0.96091,0.96094 2.19138,1.71094 3.69141,2.25 1.49997,0.53907 3.30465,0.8086 5.41406,0.80859 1.45309,1e-5 2.98824,-0.11718 4.60547,-0.35156 1.61715,-0.23437 3.10543,-0.53906 4.46484,-0.91407 z" style="fill:#ffffff;fill-opacity:1" id="path3971"/>
      <path d="m 243.41316,340.6362 c -2.48441,6e-5 -4.793,0.49225 -6.92578,1.47656 -2.13284,0.98443 -3.99612,2.32037 -5.58984,4.00781 -1.59378,1.68756 -2.88284,3.66802 -3.86719,5.94141 -0.98439,2.27348 -1.59377,4.69926 -1.82813,7.27734 l 33.75,0 c -5e-5,-2.62495 -0.33989,-5.07417 -1.01953,-7.34765 -0.67973,-2.27339 -1.67583,-4.25386 -2.98828,-5.94141 -1.31254,-1.68744 -2.92973,-3.01166 -4.85156,-3.97265 -1.92192,-0.96088 -4.14848,-1.44135 -6.67969,-1.44141 z m 5.97656,51.46875 c 3.60933,1e-5 6.9023,-0.29296 9.87891,-0.87891 2.97651,-0.58592 5.94135,-1.41796 8.89453,-2.49609 l 0,9.07031 c -2.39068,1.17188 -5.3438,2.09766 -8.85937,2.77735 -3.51568,0.67968 -7.28911,1.01953 -11.32032,1.01953 -4.78128,0 -9.26956,-0.60938 -13.46484,-1.82813 -4.19534,-1.21875 -7.8633,-3.18749 -11.00391,-5.90625 -3.14063,-2.71874 -5.61329,-6.26952 -7.41796,-10.65234 -1.8047,-4.38279 -2.70704,-9.66794 -2.70704,-15.85547 0,-6.09371 0.84375,-11.37886 2.53125,-15.85547 1.68749,-4.47651 3.93749,-8.21479 6.75,-11.21484 2.81249,-2.99994 6.04686,-5.24994 9.70313,-6.75 3.65622,-1.49993 7.47653,-2.24993 11.46094,-2.25 3.74996,7e-5 7.25386,0.62116 10.51172,1.86328 3.25776,1.24225 6.08197,3.19928 8.47265,5.87109 2.39057,2.67194 4.27729,6.11724 5.66016,10.33594 1.38275,4.2188 2.07415,9.28129 2.07422,15.1875 -7e-5,0.56253 -7e-5,1.043 0,1.44141 -7e-5,0.39847 -0.0235,1.30081 -0.0703,2.70703 l -45.84375,0 c -1e-5,4.26565 0.64452,7.88674 1.9336,10.86328 1.28904,2.97658 3.04685,5.39064 5.27344,7.24219 2.22653,1.85157 4.83981,3.19922 7.83984,4.04296 2.99996,0.84376 6.23434,1.26564 9.70312,1.26563 z" style="fill:#ffffff;fill-opacity:1" id="path3973"/>
      <path d="m 299.52254,342.3237 0.21093,0 c 1.21873,-1.54682 2.56639,-2.98822 4.04297,-4.32422 1.47654,-1.33587 3.12888,-2.50775 4.95703,-3.51562 1.8281,-1.00775 3.832,-1.79291 6.01172,-2.35547 2.17965,-0.56243 4.55856,-0.84368 7.13672,-0.84375 3.04683,7e-5 5.9062,0.42194 8.57813,1.26562 2.67182,0.84382 4.99213,2.20319 6.96093,4.07813 1.96869,1.87506 3.52729,4.32428 4.67579,7.34765 1.14837,3.02349 1.72259,6.73833 1.72265,11.14453 l 0,44.71875 -10.89844,0 0,-42.96093 c -5e-5,-5.76558 -1.11333,-9.91401 -3.33984,-12.44532 -2.22661,-2.53119 -5.4727,-3.79681 -9.73828,-3.79687 -3.75004,6e-5 -7.38285,1.04303 -10.89844,3.12891 -3.51565,2.08599 -6.53908,4.95708 -9.07031,8.61328 l 0,47.46093 -10.89844,0 0,-66.79687 8.4375,0 z" style="fill:#ffffff;fill-opacity:1" id="path3975"/>
      <path d="m 366.67097,399.83932 0,-13.71093 13.42969,0 0,13.71093 z" style="fill:#ffffff;fill-opacity:1" id="path3977"/>
      <path d="m 415.81941,414.74557 c -2e-5,6.14061 -1.75783,10.93357 -5.27344,14.37891 -3.51563,3.44528 -9.09375,5.16794 -16.73437,5.16797 -2.01562,-3e-5 -3.94922,-0.15238 -5.80078,-0.45703 -1.85156,-0.30472 -3.22265,-0.62113 -4.11328,-0.94922 l 0,-9.28125 c 1.40625,0.37498 2.8125,0.66794 4.21875,0.87891 1.40625,0.21091 2.85937,0.31638 4.35937,0.3164 4.45312,-2e-5 7.64062,-0.91408 9.5625,-2.74219 1.92187,-1.82814 2.8828,-4.68751 2.88281,-8.57812 l 0,-80.4375 10.89844,0 z m -11.17969,-97.24218 0,-12.16407 11.46094,0 0,12.16407 z" style="fill:#ffffff;fill-opacity:1" id="path3979"/>
      <path d="m 476.85066,392.45651 -0.28125,0 c -0.89067,1.12501 -2.01567,2.23829 -3.375,3.33985 -1.35942,1.10156 -2.92973,2.08594 -4.71094,2.95312 -1.78128,0.86719 -3.7266,1.55859 -5.83593,2.07422 -2.10941,0.51562 -4.35941,0.77344 -6.75,0.77344 -3.2344,0 -6.19924,-0.48047 -8.89453,-1.44141 -2.69533,-0.96094 -5.01564,-2.36718 -6.96094,-4.21875 -1.94532,-1.85156 -3.45704,-4.11327 -4.53516,-6.78516 -1.07813,-2.67186 -1.61719,-5.69529 -1.61719,-9.07031 0,-3.3281 0.59765,-6.30466 1.79297,-8.92969 1.19531,-2.62496 2.87109,-4.85152 5.02735,-6.67968 2.15623,-1.82809 4.74607,-3.23434 7.76953,-4.21875 3.02341,-0.98434 6.36325,-1.47652 10.01953,-1.47657 3.46871,0.0469 6.67965,0.35161 9.63281,0.91407 2.95308,0.56254 5.57808,1.26566 7.875,2.10937 l 0.28125,0 0,-4.64062 c -5e-5,-1.82808 -0.11723,-3.44527 -0.35156,-4.85157 -0.23442,-1.4062 -0.63286,-2.64838 -1.19531,-3.72656 -1.2188,-2.24994 -3.16411,-4.11322 -5.83594,-5.58984 -2.67191,-1.47651 -6.28129,-2.21479 -10.82813,-2.21485 -3.37502,6e-5 -6.5508,0.31647 -9.52734,0.94922 -2.97658,0.63287 -5.94142,1.51178 -8.89453,2.63672 l 0,-9.14062 c 1.12499,-0.56244 2.4492,-1.08978 3.97266,-1.58203 1.52342,-0.49212 3.12888,-0.914 4.8164,-1.26563 1.68748,-0.35149 3.46873,-0.62102 5.34375,-0.80859 1.87497,-0.18743 3.74997,-0.28118 5.625,-0.28125 6.74996,7e-5 12.26949,1.19538 16.5586,3.58593 4.28901,2.39069 7.37103,5.55475 9.24609,9.49219 0.70307,1.50006 1.20697,3.1524 1.51172,4.95703 0.30463,1.80474 0.45697,3.78521 0.45703,5.94141 l 0,44.57812 -9.14063,0 z m -0.5625,-21.9375 c -2.01567,-0.56247 -4.40629,-1.10153 -7.17187,-1.61719 -2.76567,-0.51559 -5.81254,-0.79684 -9.14063,-0.84375 -4.64065,4e-5 -8.27346,0.98441 -10.89844,2.95313 -2.62501,1.96878 -3.93751,4.99221 -3.9375,9.07031 -1e-5,2.06252 0.32811,3.86721 0.98438,5.41406 0.65623,1.54689 1.55857,2.82424 2.70703,3.83204 1.14842,1.00782 2.50779,1.75782 4.07813,2.25 1.57028,0.49219 3.24606,0.73828 5.02734,0.73828 2.34372,0 4.5234,-0.33984 6.53906,-1.01953 2.01559,-0.67968 3.80855,-1.48828 5.37891,-2.42579 1.57027,-0.93748 2.9062,-1.87498 4.00781,-2.8125 1.10152,-0.93748 1.91011,-1.66404 2.42578,-2.17968 z" style="fill:#ffffff;fill-opacity:1" id="path3981"/>
      <path d="m 531.13191,388.80026 c 1.59372,-4.87498 3.74997,-11.08591 6.46875,-18.63281 l 13.21875,-37.125 11.39063,0 -25.45313,66.79687 -11.39062,0 -25.45313,-66.79687 11.25,0 13.21875,37.125 c 2.62497,7.31252 4.78122,13.52345 6.46875,18.63281 z" style="fill:#ffffff;fill-opacity:1" id="path3983"/>
      <path d="m 614.10066,392.45651 -0.28125,0 c -0.89067,1.12501 -2.01567,2.23829 -3.375,3.33985 -1.35942,1.10156 -2.92973,2.08594 -4.71094,2.95312 -1.78128,0.86719 -3.7266,1.55859 -5.83593,2.07422 -2.10941,0.51562 -4.35941,0.77344 -6.75,0.77344 -3.2344,0 -6.19924,-0.48047 -8.89453,-1.44141 -2.69533,-0.96094 -5.01564,-2.36718 -6.96094,-4.21875 -1.94532,-1.85156 -3.45704,-4.11327 -4.53516,-6.78516 -1.07813,-2.67186 -1.61719,-5.69529 -1.61719,-9.07031 0,-3.3281 0.59765,-6.30466 1.79297,-8.92969 1.19531,-2.62496 2.87109,-4.85152 5.02735,-6.67968 2.15623,-1.82809 4.74607,-3.23434 7.76953,-4.21875 3.02341,-0.98434 6.36325,-1.47652 10.01953,-1.47657 3.46871,0.0469 6.67965,0.35161 9.63281,0.91407 2.95308,0.56254 5.57808,1.26566 7.875,2.10937 l 0.28125,0 0,-4.64062 c -5e-5,-1.82808 -0.11723,-3.44527 -0.35156,-4.85157 -0.23442,-1.4062 -0.63286,-2.64838 -1.19531,-3.72656 -1.2188,-2.24994 -3.16411,-4.11322 -5.83594,-5.58984 -2.67191,-1.47651 -6.28129,-2.21479 -10.82813,-2.21485 -3.37502,6e-5 -6.5508,0.31647 -9.52734,0.94922 -2.97658,0.63287 -5.94142,1.51178 -8.89453,2.63672 l 0,-9.14062 c 1.12499,-0.56244 2.4492,-1.08978 3.97266,-1.58203 1.52342,-0.49212 3.12888,-0.914 4.8164,-1.26563 1.68748,-0.35149 3.46873,-0.62102 5.34375,-0.80859 1.87497,-0.18743 3.74997,-0.28118 5.625,-0.28125 6.74996,7e-5 12.26949,1.19538 16.5586,3.58593 4.28901,2.39069 7.37103,5.55475 9.24609,9.49219 0.70307,1.50006 1.20697,3.1524 1.51172,4.95703 0.30463,1.80474 0.45697,3.78521 0.45703,5.94141 l 0,44.57812 -9.14063,0 z m -0.5625,-21.9375 c -2.01567,-0.56247 -4.40629,-1.10153 -7.17187,-1.61719 -2.76567,-0.51559 -5.81254,-0.79684 -9.14063,-0.84375 -4.64065,4e-5 -8.27346,0.98441 -10.89844,2.95313 -2.62501,1.96878 -3.93751,4.99221 -3.9375,9.07031 -10e-6,2.06252 0.32811,3.86721 0.98438,5.41406 0.65623,1.54689 1.55857,2.82424 2.70703,3.83204 1.14842,1.00782 2.50779,1.75782 4.07813,2.25 1.57028,0.49219 3.24606,0.73828 5.02734,0.73828 2.34372,0 4.5234,-0.33984 6.53906,-1.01953 2.01559,-0.67968 3.80855,-1.48828 5.37891,-2.42579 1.57027,-0.93748 2.9062,-1.87498 4.00781,-2.8125 1.10152,-0.93748 1.91011,-1.66404 2.42578,-2.17968 z" style="fill:#ffffff;fill-opacity:1" id="path3985"/>
      <path d="m 669.85847,367.6362 c -1.40628,3e-5 -2.83596,0.0821 -4.28906,0.24609 -1.45315,0.1641 -2.75393,0.56254 -3.90234,1.19532 -1.14846,0.63284 -2.09768,1.58206 -2.84766,2.84765 -0.75002,1.26565 -1.12502,3.00003 -1.125,5.20313 -2e-5,2.29689 0.33982,4.40627 1.01953,6.32812 0.67967,1.92189 1.5117,3.75002 2.4961,5.48438 0.60935,1.07813 1.19528,2.14454 1.75781,3.19922 0.56247,1.05469 1.0781,2.13281 1.54687,3.23437 0.46872,1.10157 0.84372,2.27344 1.125,3.51563 0.28122,1.24218 0.42185,2.61328 0.42188,4.11328 -3e-5,1.68749 -0.32816,3.57421 -0.98438,5.66015 -0.65627,2.08593 -1.88674,4.04296 -3.6914,5.8711 -1.80471,1.82811 -4.32424,3.35154 -7.5586,4.57031 -3.23439,1.21873 -7.40626,1.8281 -12.51562,1.82812 l -2.39063,0 0,-8.64843 0.84375,0 c 5.10937,-1e-5 8.9414,-0.84376 11.4961,-2.53125 2.55467,-1.68751 3.83201,-4.0547 3.83203,-7.10157 -2e-5,-2.20312 -0.41018,-4.24218 -1.23047,-6.11718 -0.82033,-1.875 -1.72267,-3.75 -2.70703,-5.625 -0.84377,-1.64062 -1.58205,-3.41015 -2.21484,-5.3086 -0.63283,-1.89842 -0.94924,-4.16013 -0.94922,-6.78515 -2e-5,-2.53123 0.37498,-4.73435 1.125,-6.60938 0.74998,-1.87497 1.64061,-3.42184 2.67187,-4.64062 1.03123,-1.21872 2.09764,-2.16794 3.19922,-2.84766 1.10154,-0.67965 1.98045,-1.08981 2.63672,-1.23047 l 0,-0.28125 c -0.65627,-0.14059 -1.53518,-0.55074 -2.63672,-1.23047 -1.10158,-0.67965 -2.16799,-1.62886 -3.19922,-2.84765 -1.03126,-1.21871 -1.92189,-2.76558 -2.67187,-4.64063 -0.75002,-1.87495 -1.12502,-4.07807 -1.125,-6.60937 -2e-5,-2.76557 0.36327,-5.19135 1.08984,-7.27735 0.72655,-2.08587 1.58202,-4.01946 2.56641,-5.80078 0.93748,-1.73431 1.74607,-3.45696 2.42578,-5.16797 0.67967,-1.71086 1.01951,-3.57414 1.01953,-5.58984 -2e-5,-3.0468 -1.26564,-5.41398 -3.79688,-7.10156 -2.53126,-1.68742 -6.37501,-2.53117 -11.53125,-2.53125 l -0.84375,0 0,-8.64844 2.39063,0 c 5.10936,9e-5 9.28123,0.60947 12.51562,1.82812 3.23436,1.21885 5.75389,2.74228 7.5586,4.57032 1.80466,1.82821 3.03513,3.79696 3.6914,5.90625 0.65622,2.10945 0.98435,4.03133 0.98438,5.76562 -3e-5,2.43758 -0.42191,4.66414 -1.26563,6.67969 -0.84377,2.01569 -1.80471,3.98444 -2.88281,5.90625 -1.12502,1.96881 -2.1094,4.01959 -2.95312,6.15234 -0.84378,2.13287 -1.26565,4.4649 -1.26563,6.9961 -2e-5,2.20317 0.37498,3.93754 1.125,5.20312 0.74998,1.26567 1.6992,2.21489 2.84766,2.84766 1.14841,0.63285 2.44919,1.03129 3.90234,1.19531 1.4531,0.1641 2.88278,0.24614 4.28906,0.24609 z" style="fill:#3590e6;fill-opacity:1" id="path3987"/>
    </g>
    <g style="font-size:40px;font-style:normal;font-variant:normal;font-weight:normal;font-stretch:normal;line-height:125%;letter-spacing:0px;word-spacing:0px;fill:#000000;fill-opacity:1;stroke:none;font-family:Roboto Slab;-inkscape-font-specification:Roboto Slab" id="text3871">
      <path d="m 541.31598,443.24017 0,-2.63672 9.31641,-10.35156 c 1.66665,-1.86196 2.79621,-3.33983 3.38867,-4.43359 0.59243,-1.09373 0.88865,-2.21352 0.88867,-3.35938 -2e-5,-1.41925 -0.41668,-2.61391 -1.25,-3.58398 -0.83335,-0.97003 -1.93361,-1.45505 -3.30078,-1.45508 -1.96616,3e-5 -3.41147,0.50133 -4.33594,1.50391 -0.92448,1.00262 -1.38672,2.42189 -1.38672,4.25781 l -3.6914,0 -0.0391,-0.11719 c -0.0651,-2.44789 0.74544,-4.50518 2.43164,-6.17187 1.6862,-1.66664 4.02669,-2.49997 7.02149,-2.5 2.56509,3e-5 4.6061,0.74547 6.12304,2.23633 1.51691,1.49091 2.27538,3.38869 2.2754,5.69335 -2e-5,1.5495 -0.45901,3.09898 -1.37696,4.64844 -0.91798,1.5495 -2.2103,3.22267 -3.87695,5.01953 l -7.48047,8.14453 0.0391,0.0977 10.09766,0 0.3125,-3.26172 3.26172,0 0,6.26953 z" style="fill:#ffffff" id="path3960"/>
      <path d="m 581.99957,432.40033 c -2e-5,3.63282 -0.80731,6.41602 -2.42187,8.34961 -1.6146,1.93359 -3.82163,2.90039 -6.6211,2.90039 -2.78646,0 -4.99349,-0.97005 -6.62109,-2.91016 -1.62761,-1.9401 -2.44141,-4.72004 -2.44141,-8.33984 l 0,-6.73828 c 0,-3.61977 0.80729,-6.40297 2.42188,-8.34961 1.61458,-1.94659 3.81509,-2.91989 6.60156,-2.91992 2.79947,3e-5 5.01301,0.97333 6.64063,2.91992 1.62758,1.94664 2.44138,4.72984 2.4414,8.34961 z m -3.84765,-7.55859 c -2e-5,-2.46092 -0.44598,-4.31313 -1.33789,-5.55664 -0.89195,-1.24347 -2.19077,-1.86521 -3.89649,-1.86524 -1.6797,3e-5 -2.96225,0.62177 -3.84765,1.86524 -0.88543,1.24351 -1.32814,3.09572 -1.32813,5.55664 l 0,8.33984 c -10e-6,2.46094 0.44921,4.31967 1.34766,5.57617 0.89843,1.25652 2.18749,1.88477 3.86718,1.88477 1.70572,0 2.99804,-0.625 3.87696,-1.875 0.87889,-1.25 1.31834,-3.11197 1.31836,-5.58594 z" style="fill:#ffffff" id="path3962"/>
      <path d="m 586.7066,440.77924 4.39454,-0.54688 0,-21.30859 -4.47266,0.0781 0,-2.40234 8.32031,-1.79688 0,25.42969 4.375,0.54688 0,2.46093 -12.61719,0 z" style="fill:#ffffff" id="path3964"/>
      <path d="m 618.65973,433.66986 3.92578,0 0,3.00781 -3.92578,0 0,3.55469 3.18359,0.54688 0,2.46093 -10.19531,0 0,-2.46093 3.18359,-0.54688 0,-3.55469 -12.77343,0 0,-2.16797 12.53906,-19.70703 4.0625,0 z m -12.5,0 8.67187,0 0,-13.37891 -0.11718,-0.0391 -0.39063,1.03516 z" style="fill:#ffffff" id="path3966"/>
    </g>
  </g>
</svg>