<?xml version="1.0" encoding="utf-8"?>
<!-- Generator: Adobe Illustrator 16.0.4, SVG Export Plug-In . SVG Version: 6.00 Build 0)  -->
<svg version="1.1" id="Layer_1" xmlns="http://www.w3.org/2000/svg" xmlns:xlink="http://www.w3.org/1999/xlink" x="0px" y="0px"
	 width="574.945px" height="147.231px" viewBox="0 0 574.945 147.231" enable-background="new 0 0 574.945 147.231"
	 xml:space="preserve">
<g>
	<path fill="#FFFFFF" d="M464.116,128.168l-2.539,0.391l4.355,12.031l0.352,1.523h0.117l0.371-1.523l4.219-12.031l-2.559-0.391
		v-2.48h8.164v2.48l-1.738,0.293l-7.09,18.359h-2.91l-7.168-18.359l-1.738-0.293v-2.48h8.164V128.168z"/>
	<path fill="#FFFFFF" d="M484.545,130.825h3.359c1.706,0,2.913-0.426,3.623-1.279c0.71-0.852,1.064-2.041,1.064-3.564
		c0-1.627-0.403-2.863-1.211-3.711c-0.808-0.846-1.999-1.27-3.574-1.27c-1.497,0-2.698,0.439-3.604,1.318s-1.357,2.049-1.357,3.506
		h-3.691l-0.039-0.117c-0.065-2.148,0.713-3.975,2.334-5.479s3.74-2.256,6.357-2.256c2.63,0,4.727,0.701,6.289,2.1
		c1.562,1.4,2.344,3.396,2.344,5.986c0,1.172-0.354,2.342-1.064,3.506c-0.71,1.166-1.774,2.055-3.193,2.666
		c1.706,0.561,2.913,1.439,3.623,2.637c0.71,1.199,1.064,2.539,1.064,4.023c0,2.592-0.85,4.629-2.549,6.113s-3.87,2.227-6.514,2.227
		c-2.604,0-4.753-0.699-6.445-2.1c-1.692-1.398-2.507-3.297-2.441-5.693l0.059-0.117h3.672c0,1.498,0.459,2.689,1.377,3.574
		c0.918,0.887,2.178,1.328,3.779,1.328c1.628,0,2.903-0.441,3.828-1.328c0.925-0.885,1.387-2.193,1.387-3.926
		c0-1.758-0.41-3.053-1.23-3.887c-0.82-0.832-2.116-1.25-3.887-1.25h-3.359V130.825z"/>
	<path fill="#FFFFFF" d="M505.737,146.821h-3.848v-3.945h3.848V146.821z"/>
	<path fill="#FFFFFF" d="M529.155,135.981c0,3.633-0.808,6.416-2.422,8.35s-3.821,2.9-6.621,2.9c-2.786,0-4.993-0.969-6.621-2.91
		c-1.628-1.939-2.441-4.719-2.441-8.34v-6.738c0-3.619,0.808-6.402,2.422-8.35c1.614-1.945,3.815-2.92,6.602-2.92
		c2.8,0,5.013,0.975,6.641,2.92c1.628,1.947,2.441,4.73,2.441,8.35V135.981z M525.307,128.422c0-2.461-0.446-4.312-1.338-5.557
		c-0.892-1.242-2.19-1.865-3.896-1.865c-1.68,0-2.962,0.623-3.848,1.865c-0.886,1.244-1.328,3.096-1.328,5.557v8.34
		c0,2.461,0.449,4.32,1.348,5.576c0.898,1.258,2.188,1.885,3.867,1.885c1.706,0,2.998-0.625,3.877-1.875s1.318-3.111,1.318-5.586
		V128.422z"/>
</g>
<g>
	<path fill="#3590E6" d="M0,61.031c1.406,0,2.835-0.081,4.289-0.246c1.452-0.164,2.753-0.562,3.902-1.195
		c1.148-0.633,2.097-1.582,2.848-2.848c0.749-1.266,1.125-2.999,1.125-5.203c0-2.531-0.422-4.862-1.266-6.996
		c-0.844-2.133-1.828-4.184-2.953-6.152c-1.079-1.922-2.039-3.891-2.883-5.906c-0.844-2.015-1.266-4.242-1.266-6.68
		c0-1.733,0.341-3.656,1.021-5.766c0.682-2.109,1.959-4.078,3.833-5.906c1.874-1.828,4.452-3.351,7.732-4.57
		c3.281-1.219,7.475-1.828,12.585-1.828h2.391v8.648h-0.844c-5.157,0-9,0.844-11.531,2.531s-3.797,4.055-3.797,7.102
		c0,2.016,0.339,3.879,1.02,5.59c0.679,1.712,1.487,3.435,2.426,5.168c0.984,1.782,1.839,3.716,2.566,5.801
		c0.726,2.086,1.09,4.512,1.09,7.277c0,2.531-0.376,4.735-1.125,6.609c-0.75,1.875-1.642,3.422-2.672,4.641
		c-1.032,1.22-2.099,2.169-3.199,2.848c-1.102,0.68-1.981,1.09-2.637,1.23v0.281c0.656,0.141,1.535,0.552,2.637,1.23
		c1.101,0.68,2.167,1.629,3.199,2.848c1.03,1.22,1.921,2.767,2.672,4.641c0.749,1.875,1.125,4.078,1.125,6.609
		c0,2.626-0.316,4.887-0.949,6.785s-1.371,3.668-2.215,5.309c-0.984,1.875-1.888,3.751-2.707,5.625
		c-0.821,1.875-1.23,3.913-1.23,6.118c0,3.047,1.276,5.414,3.832,7.102c2.554,1.688,6.386,2.531,11.496,2.531h0.844v8.648h-2.391
		c-5.11,0-9.304-0.609-12.585-1.828c-3.28-1.221-5.858-2.742-7.732-4.57c-1.875-1.828-3.152-3.787-3.833-5.871
		c-0.681-2.086-1.021-3.973-1.021-5.66c0-1.501,0.141-2.873,0.422-4.114s0.656-2.414,1.125-3.516
		c0.468-1.101,0.984-2.18,1.547-3.234s1.148-2.12,1.758-3.199c0.984-1.733,1.816-3.562,2.496-5.484
		c0.679-1.922,1.02-4.031,1.02-6.328c0-2.203-0.376-3.938-1.125-5.203c-0.75-1.266-1.7-2.215-2.848-2.848
		c-1.149-0.633-2.45-1.03-3.902-1.195C2.835,69.691,1.406,69.609,0,69.609V61.031z"/>
	<path fill="#FFFFFF" d="M80.578,101.953c-0.938,0.375-2.368,0.727-4.289,1.055c-1.923,0.327-4.219,0.516-6.891,0.562
		c-3.516,0-6.563-0.434-9.141-1.301c-2.579-0.867-4.723-2.109-6.434-3.727c-1.712-1.617-2.988-3.574-3.832-5.871
		c-0.844-2.296-1.266-4.852-1.266-7.664V44.367H35.859v-9.352h12.867V16.734h10.898v18.281h19.969v9.352H59.625V83.32
		c0,1.547,0.222,2.978,0.668,4.289c0.445,1.312,1.148,2.45,2.109,3.41c0.96,0.961,2.19,1.712,3.691,2.25
		c1.5,0.539,3.305,0.809,5.414,0.809c1.452,0,2.988-0.116,4.605-0.352c1.617-0.234,3.104-0.538,4.465-0.914V101.953z"/>
	<path fill="#FFFFFF" d="M127.055,94.078c3.609,0,6.901-0.292,9.879-0.879c2.976-0.586,5.941-1.417,8.895-2.496v9.07
		c-2.391,1.172-5.344,2.098-8.859,2.777c-3.516,0.679-7.29,1.02-11.32,1.02c-4.781,0-9.271-0.609-13.465-1.828
		c-4.196-1.219-7.828-3.188-10.895-5.906c-3.067-2.718-5.47-6.269-7.207-10.652c-1.737-4.383-2.605-9.668-2.605-15.855
		c0-6.093,0.842-11.379,2.524-15.855c1.684-4.476,3.928-8.215,6.734-11.215c2.806-2.999,6.031-5.249,9.679-6.75
		c3.647-1.5,7.458-2.25,11.434-2.25c3.74,0,7.236,0.622,10.485,1.863c3.25,1.242,6.067,3.199,8.452,5.871
		c2.384,2.672,4.266,6.117,5.646,10.336s2.07,9.281,2.07,15.188c0,0.562,0,1.044,0,1.441c0,0.398-0.024,1.301-0.07,2.707h-46.125
		c0,4.266,0.644,7.887,1.934,10.863c1.289,2.978,3.046,5.391,5.273,7.242c2.226,1.853,4.839,3.199,7.84,4.043
		C120.351,93.656,123.585,94.078,127.055,94.078z M121.306,42.609c-2.516,0-4.853,0.492-7.013,1.477s-4.046,2.32-5.659,4.008
		c-1.614,1.688-2.919,3.668-3.916,5.941c-0.998,2.274-1.614,4.7-1.851,7.277h34.172c0-2.625-0.345-5.073-1.033-7.348
		c-0.688-2.273-1.696-4.254-3.026-5.941c-1.329-1.688-2.966-3.012-4.912-3.973C126.122,43.091,123.868,42.609,121.306,42.609z"/>
	<path fill="#FFFFFF" d="M177.539,44.297h0.211c1.218-1.547,2.566-2.988,4.043-4.324s3.129-2.507,4.957-3.516
		c1.828-1.008,3.832-1.793,6.012-2.355s4.558-0.844,7.137-0.844c3.046,0,5.906,0.422,8.578,1.266s4.992,2.204,6.961,4.078
		c1.969,1.875,3.526,4.324,4.676,7.348c1.148,3.023,1.723,6.739,1.723,11.145v44.719h-10.898V58.852
		c0-5.766-1.114-9.914-3.34-12.445c-2.227-2.531-5.474-3.797-9.738-3.797c-3.751,0-7.383,1.044-10.898,3.129
		c-3.516,2.086-6.539,4.957-9.07,8.613v47.461h-10.898V35.016h8.438L177.539,44.297z"/>
	<path fill="#FFFFFF" d="M244.688,101.812V88.102h13.359v13.711H244.688z"/>
	<path fill="#FFFFFF" d="M340.875,67.289c0,6.234-0.844,11.626-2.531,16.172c-1.688,4.547-3.914,8.309-6.68,11.285
		c-2.766,2.978-5.93,5.192-9.492,6.645s-7.242,2.18-11.039,2.18c-2.859,0-5.378-0.363-7.558-1.09s-4.032-1.593-5.555-2.602
		c-1.523-1.008-2.742-2.027-3.656-3.059c-0.914-1.03-1.559-1.852-1.934-2.461h-0.211l-2.32,7.453h-8.227V0h10.898v41.273h0.211
		c2.391-2.531,5.179-4.5,8.367-5.906c3.188-1.406,6.82-2.109,10.898-2.109c1.875,0,3.902,0.211,6.082,0.633s4.336,1.149,6.469,2.18
		c2.133,1.031,4.184,2.391,6.152,4.078s3.703,3.786,5.203,6.293c1.5,2.508,2.695,5.484,3.586,8.93S340.875,62.789,340.875,67.289z
		 M329.484,68.133c0-5.297-0.621-9.598-1.863-12.902s-2.836-5.882-4.781-7.734c-1.945-1.852-4.02-3.129-6.223-3.832
		s-4.406-1.055-6.609-1.055c-3.375,0-6.55,0.703-9.527,2.109c-2.978,1.406-5.614,3.234-7.91,5.484v34.945
		c0.656,0.891,1.512,1.863,2.566,2.918s2.309,2.039,3.762,2.953c1.452,0.914,3.082,1.688,4.887,2.32
		c1.804,0.633,3.785,0.949,5.941,0.949c3.234,0,6.082-0.633,8.543-1.898s4.523-3.059,6.188-5.379s2.918-5.086,3.762-8.297
		C329.062,75.505,329.484,71.977,329.484,68.133z"/>
	<path fill="#FFFFFF" d="M389.812,94.078c3.609,0,6.902-0.292,9.879-0.879c2.977-0.586,5.941-1.417,8.895-2.496v9.07
		c-2.391,1.172-5.344,2.098-8.859,2.777c-3.516,0.679-7.289,1.02-11.32,1.02c-4.781,0-9.27-0.609-13.465-1.828
		s-7.828-3.188-10.895-5.906c-3.068-2.718-5.471-6.269-7.207-10.652c-1.736-4.383-2.605-9.668-2.605-15.855
		c0-6.093,0.842-11.379,2.525-15.855c1.684-4.476,3.928-8.215,6.732-11.215c2.807-2.999,6.033-5.249,9.68-6.75
		c3.648-1.5,7.459-2.25,11.434-2.25c3.74,0,7.236,0.622,10.484,1.863c3.25,1.242,6.068,3.199,8.453,5.871
		c2.383,2.672,4.266,6.117,5.645,10.336c1.381,4.219,2.07,9.281,2.07,15.188c0,0.562,0,1.044,0,1.441
		c0,0.398-0.023,1.301-0.07,2.707h-46.125c0,4.266,0.645,7.887,1.934,10.863c1.289,2.978,3.047,5.391,5.273,7.242
		c2.227,1.853,4.84,3.199,7.84,4.043S386.343,94.078,389.812,94.078z M384.064,42.609c-2.516,0-4.854,0.492-7.014,1.477
		s-4.045,2.32-5.658,4.008c-1.615,1.688-2.92,3.668-3.916,5.941c-0.998,2.274-1.613,4.7-1.852,7.277h34.172
		c0-2.625-0.344-5.073-1.033-7.348c-0.688-2.273-1.695-4.254-3.025-5.941c-1.328-1.688-2.965-3.012-4.912-3.973
		C388.88,43.091,386.625,42.609,384.064,42.609z"/>
	<path fill="#FFFFFF" d="M464.976,101.953c-0.938,0.375-2.367,0.727-4.289,1.055c-1.922,0.327-4.219,0.516-6.891,0.562
		c-3.516,0-6.562-0.434-9.141-1.301s-4.723-2.109-6.434-3.727s-2.988-3.574-3.832-5.871c-0.844-2.296-1.266-4.852-1.266-7.664
		V44.367h-12.867v-9.352h12.867V16.734h10.898v18.281h19.969v9.352h-19.969V83.32c0,1.547,0.223,2.978,0.668,4.289
		c0.445,1.312,1.148,2.45,2.109,3.41c0.961,0.961,2.191,1.712,3.691,2.25c1.5,0.539,3.305,0.809,5.414,0.809
		c1.453,0,2.988-0.116,4.605-0.352c1.617-0.234,3.105-0.538,4.465-0.914V101.953z"/>
	<path fill="#FFFFFF" d="M518.835,94.43h-0.281c-0.891,1.125-2.016,2.239-3.375,3.34c-1.359,1.102-2.93,2.086-4.711,2.953
		c-1.781,0.868-3.727,1.558-5.836,2.074c-2.109,0.516-4.359,0.773-6.75,0.773c-3.234,0-6.199-0.481-8.895-1.441
		s-5.016-2.366-6.961-4.219c-1.945-1.852-3.457-4.113-4.535-6.785s-1.617-5.695-1.617-9.07c0-3.328,0.598-6.304,1.793-8.93
		c1.195-2.625,2.871-4.852,5.027-6.68s4.746-3.234,7.77-4.219s6.363-1.477,10.02-1.477c3.469,0.047,6.68,0.352,9.633,0.914
		s5.578,1.266,7.875,2.109h0.281v-4.641c0-1.828-0.117-3.445-0.352-4.852s-0.633-2.647-1.195-3.727
		c-1.219-2.25-3.164-4.113-5.836-5.59s-6.281-2.215-10.828-2.215c-3.375,0-6.551,0.316-9.527,0.949s-5.941,1.512-8.895,2.637v-9.141
		c1.125-0.562,2.449-1.09,3.973-1.582s3.129-0.914,4.816-1.266s3.469-0.621,5.344-0.809c1.875-0.187,3.75-0.281,5.625-0.281
		c6.75,0,12.27,1.195,16.559,3.586s7.371,5.555,9.246,9.492c0.703,1.501,1.207,3.153,1.512,4.957
		c0.305,1.805,0.457,3.786,0.457,5.941v44.578h-9.141L518.835,94.43z M518.273,72.492c-2.006-0.562-4.387-1.101-7.139-1.617
		c-2.754-0.516-5.787-0.797-9.1-0.844c-4.619,0-8.236,0.984-10.85,2.953s-3.92,4.992-3.92,9.07c0,2.063,0.326,3.867,0.98,5.414
		c0.652,1.547,1.551,2.824,2.695,3.832c1.143,1.009,2.496,1.758,4.059,2.25s3.232,0.738,5.004,0.738c2.334,0,4.504-0.34,6.51-1.02
		c2.006-0.679,3.791-1.487,5.355-2.426c1.562-0.938,2.893-1.874,3.99-2.812c1.096-0.938,1.9-1.663,2.414-2.18V72.492z"/>
	<path fill="#3590E6" d="M574.945,69.609c-1.406,0-2.836,0.082-4.289,0.246c-1.453,0.165-2.754,0.562-3.902,1.195
		s-2.098,1.582-2.848,2.848s-1.125,3-1.125,5.203c0,2.297,0.34,4.406,1.02,6.328c0.68,1.923,1.512,3.751,2.496,5.484
		c0.609,1.079,1.195,2.145,1.758,3.199s1.078,2.134,1.547,3.234c0.469,1.102,0.844,2.274,1.125,3.516s0.422,2.612,0.422,4.114
		c0,1.688-0.342,3.574-1.021,5.66c-0.682,2.084-1.959,4.043-3.834,5.871s-4.451,3.35-7.73,4.57
		c-3.281,1.219-7.477,1.828-12.586,1.828h-2.391v-8.648h0.844c5.109,0,8.941-0.844,11.496-2.531s3.832-4.055,3.832-7.102
		c0-2.205-0.41-4.243-1.23-6.118c-0.82-1.874-1.723-3.75-2.707-5.625c-0.844-1.641-1.582-3.41-2.215-5.309s-0.949-4.159-0.949-6.785
		c0-2.531,0.375-4.734,1.125-6.609c0.75-1.874,1.641-3.421,2.672-4.641c1.031-1.219,2.098-2.168,3.199-2.848
		c1.102-0.679,1.98-1.09,2.637-1.23V65.18c-0.656-0.141-1.535-0.551-2.637-1.23c-1.102-0.679-2.168-1.628-3.199-2.848
		c-1.031-1.219-1.922-2.766-2.672-4.641c-0.75-1.874-1.125-4.078-1.125-6.609c0-2.766,0.363-5.191,1.09-7.277
		c0.727-2.085,1.582-4.019,2.566-5.801c0.938-1.733,1.746-3.456,2.426-5.168c0.68-1.711,1.02-3.574,1.02-5.59
		c0-3.047-1.266-5.414-3.797-7.102s-6.375-2.531-11.531-2.531h-0.844V7.734h2.391c5.109,0,9.305,0.609,12.586,1.828
		c3.279,1.22,5.855,2.742,7.73,4.57s3.152,3.797,3.834,5.906c0.68,2.109,1.021,4.032,1.021,5.766c0,2.438-0.422,4.665-1.266,6.68
		c-0.844,2.016-1.805,3.984-2.883,5.906c-1.125,1.969-2.109,4.02-2.953,6.152c-0.844,2.134-1.266,4.465-1.266,6.996
		c0,2.204,0.375,3.938,1.125,5.203s1.699,2.215,2.848,2.848s2.449,1.031,3.902,1.195c1.453,0.165,2.883,0.246,4.289,0.246V69.609z"
		/>
</g>
</svg>
