<?xml version="1.0" encoding="utf-8"?>
<!-- Generator: Adobe Illustrator 16.0.4, SVG Export Plug-In . SVG Version: 6.00 Build 0)  -->
<svg version="1.1" id="Layer_1" xmlns="http://www.w3.org/2000/svg" xmlns:xlink="http://www.w3.org/1999/xlink" x="0px" y="0px"
	 width="547.945px" height="139.918px" viewBox="0 0 547.945 139.918" enable-background="new 0 0 547.945 139.918"
	 xml:space="preserve">
<g>
	<path fill="#FFFFFF" d="M396.042,125.016h-2.891l-0.625-2.539c-0.469-0.441-1.058-0.797-1.768-1.064
		c-0.71-0.266-1.514-0.4-2.412-0.4c-1.367,0-2.383,0.301-3.047,0.898c-0.664,0.6-0.996,1.322-0.996,2.168
		c0,0.834,0.293,1.492,0.879,1.973c0.586,0.482,1.777,0.912,3.574,1.289c2.669,0.574,4.655,1.352,5.957,2.334
		c1.302,0.984,1.953,2.303,1.953,3.955c0,1.875-0.759,3.393-2.275,4.551c-1.517,1.16-3.499,1.738-5.947,1.738
		c-1.602,0-3.04-0.186-4.316-0.557s-2.415-0.908-3.418-1.611l-0.02-4.824h2.891l0.723,2.832c0.442,0.404,1.045,0.697,1.807,0.879
		c0.762,0.184,1.54,0.273,2.334,0.273c1.367,0,2.438-0.275,3.213-0.83c0.774-0.553,1.162-1.279,1.162-2.178
		c0-0.846-0.322-1.543-0.967-2.09s-1.865-1.021-3.662-1.426c-2.565-0.559-4.499-1.32-5.801-2.285
		c-1.302-0.963-1.953-2.266-1.953-3.906c0-1.719,0.732-3.184,2.197-4.395s3.369-1.816,5.713-1.816c1.602,0,3.04,0.209,4.316,0.625
		c1.276,0.418,2.337,0.996,3.184,1.738L396.042,125.016z"/>
	<path fill="#FFFFFF" d="M409.909,139.918c-2.942,0-5.283-0.979-7.021-2.939c-1.738-1.959-2.607-4.502-2.607-7.627v-0.859
		c0-3.008,0.896-5.51,2.686-7.51c1.79-1.998,3.909-2.998,6.357-2.998c2.839,0,4.99,0.859,6.455,2.578s2.197,4.012,2.197,6.875v2.402
		h-13.711l-0.059,0.098c0.039,2.031,0.554,3.701,1.543,5.01s2.376,1.963,4.16,1.963c1.302,0,2.444-0.186,3.428-0.557
		s1.833-0.881,2.549-1.533l1.504,2.5c-0.755,0.73-1.755,1.346-2.998,1.846C413.148,139.668,411.654,139.918,409.909,139.918z
		 M409.323,121.012c-1.289,0-2.39,0.545-3.301,1.631c-0.911,1.088-1.472,2.451-1.68,4.092l0.039,0.098h9.746v-0.508
		c0-1.51-0.403-2.773-1.211-3.789S410.912,121.012,409.323,121.012z"/>
	<path fill="#FFFFFF" d="M431.256,136.911c1.276,0,2.399-0.393,3.369-1.182c0.97-0.787,1.455-1.754,1.455-2.9h3.457l0.039,0.117
		c0.065,1.824-0.745,3.441-2.432,4.854c-1.687,1.414-3.649,2.119-5.889,2.119c-3.073,0-5.42-1.002-7.041-3.008
		c-1.621-2.004-2.432-4.523-2.432-7.559v-0.82c0-3.008,0.813-5.518,2.441-7.529s3.972-3.018,7.031-3.018
		c1.692,0,3.213,0.281,4.561,0.84c1.348,0.561,2.464,1.328,3.35,2.305l0.176,4.688h-3.066l-0.84-3.32
		c-0.456-0.441-1.042-0.801-1.758-1.074s-1.523-0.41-2.422-0.41c-2.019,0-3.46,0.727-4.326,2.178
		c-0.866,1.453-1.299,3.232-1.299,5.342v0.82c0,2.162,0.43,3.963,1.289,5.4C427.78,136.192,429.225,136.911,431.256,136.911z"/>
	<path fill="#FFFFFF" d="M458.444,136.383c-0.664,1.133-1.521,2.006-2.568,2.617c-1.048,0.613-2.256,0.918-3.623,0.918
		c-2.292,0-4.082-0.734-5.371-2.207c-1.289-1.471-1.934-3.762-1.934-6.875v-9.434l-2.422-0.547v-2.48h2.422h3.848v12.5
		c0,2.254,0.332,3.803,0.996,4.648c0.664,0.848,1.699,1.27,3.105,1.27c1.367,0,2.497-0.275,3.389-0.83
		c0.892-0.553,1.565-1.338,2.021-2.354v-12.207l-2.832-0.547v-2.48h2.832h3.848V136.5l2.422,0.547v2.461h-5.879L458.444,136.383z"/>
	<path fill="#FFFFFF" d="M467.624,120.856v-2.48h6.621l0.371,3.066c0.599-1.08,1.338-1.926,2.217-2.539
		c0.879-0.611,1.885-0.918,3.018-0.918c0.3,0,0.608,0.023,0.928,0.068c0.319,0.047,0.563,0.096,0.732,0.146l-0.508,3.574
		l-2.188-0.117c-1.016,0-1.868,0.238-2.559,0.713c-0.69,0.477-1.224,1.143-1.602,2.002V136.5l3.184,0.547v2.461h-10.215v-2.461
		l3.184-0.547v-15.098L467.624,120.856z"/>
	<path fill="#FFFFFF" d="M493.444,139.918c-2.942,0-5.283-0.979-7.021-2.939c-1.738-1.959-2.607-4.502-2.607-7.627v-0.859
		c0-3.008,0.896-5.51,2.686-7.51c1.79-1.998,3.909-2.998,6.357-2.998c2.839,0,4.99,0.859,6.455,2.578s2.197,4.012,2.197,6.875v2.402
		h-13.711l-0.059,0.098c0.039,2.031,0.554,3.701,1.543,5.01s2.376,1.963,4.16,1.963c1.302,0,2.444-0.186,3.428-0.557
		s1.833-0.881,2.549-1.533l1.504,2.5c-0.755,0.73-1.755,1.346-2.998,1.846C496.683,139.668,495.189,139.918,493.444,139.918z
		 M492.858,121.012c-1.289,0-2.39,0.545-3.301,1.631c-0.911,1.088-1.472,2.451-1.68,4.092l0.039,0.098h9.746v-0.508
		c0-1.51-0.403-2.773-1.211-3.789S494.447,121.012,492.858,121.012z"/>
</g>
<g>
	<path fill="#039903" d="M0,53.719c1.406,0,2.835-0.081,4.289-0.246c1.452-0.164,2.753-0.562,3.902-1.195
		c1.148-0.633,2.097-1.582,2.848-2.848c0.749-1.266,1.125-2.999,1.125-5.203c0-2.531-0.422-4.862-1.266-6.996
		c-0.844-2.133-1.828-4.184-2.953-6.152c-1.079-1.922-2.039-3.891-2.883-5.906c-0.844-2.015-1.266-4.242-1.266-6.68
		c0-1.733,0.341-3.656,1.021-5.766C5.5,10.617,6.777,8.648,8.652,6.82c1.874-1.828,4.452-3.351,7.732-4.57
		c3.281-1.219,7.475-1.828,12.585-1.828h2.391V9.07h-0.844c-5.157,0-9,0.844-11.531,2.531s-3.797,4.055-3.797,7.102
		c0,2.016,0.339,3.879,1.02,5.59c0.679,1.712,1.487,3.435,2.426,5.168c0.984,1.782,1.839,3.716,2.566,5.801
		c0.726,2.086,1.09,4.512,1.09,7.277c0,2.531-0.376,4.735-1.125,6.609c-0.75,1.875-1.642,3.422-2.672,4.641
		c-1.032,1.22-2.099,2.169-3.199,2.848c-1.102,0.68-1.981,1.09-2.637,1.23v0.281c0.656,0.141,1.535,0.552,2.637,1.23
		c1.101,0.68,2.167,1.629,3.199,2.848c1.03,1.22,1.921,2.767,2.672,4.641c0.749,1.875,1.125,4.078,1.125,6.609
		c0,2.626-0.316,4.887-0.949,6.785s-1.371,3.668-2.215,5.309c-0.984,1.875-1.888,3.751-2.707,5.625
		c-0.821,1.875-1.23,3.913-1.23,6.118c0,3.047,1.276,5.414,3.832,7.102c2.554,1.688,6.386,2.531,11.496,2.531h0.844v8.648h-2.391
		c-5.11,0-9.304-0.609-12.585-1.828c-3.28-1.221-5.858-2.742-7.732-4.57c-1.875-1.828-3.152-3.787-3.833-5.871
		c-0.681-2.086-1.021-3.973-1.021-5.66c0-1.501,0.141-2.873,0.422-4.114s0.656-2.414,1.125-3.516
		c0.468-1.101,0.984-2.18,1.547-3.234s1.148-2.12,1.758-3.199c0.984-1.733,1.816-3.562,2.496-5.484
		c0.679-1.922,1.02-4.031,1.02-6.328c0-2.203-0.376-3.938-1.125-5.203c-0.75-1.266-1.7-2.215-2.848-2.848
		c-1.149-0.633-2.45-1.03-3.902-1.195C2.835,62.379,1.406,62.297,0,62.297V53.719z"/>
	<path fill="#FFFFFF" d="M80.578,94.641c-0.938,0.375-2.368,0.727-4.289,1.055c-1.923,0.327-4.219,0.516-6.891,0.562
		c-3.516,0-6.563-0.434-9.141-1.301c-2.579-0.867-4.723-2.109-6.434-3.727c-1.712-1.617-2.988-3.574-3.832-5.871
		c-0.844-2.296-1.266-4.852-1.266-7.664V37.055H35.859v-9.352h12.867V9.422h10.898v18.281h19.969v9.352H59.625v38.953
		c0,1.547,0.222,2.978,0.668,4.289c0.445,1.312,1.148,2.45,2.109,3.41c0.96,0.961,2.19,1.712,3.691,2.25
		c1.5,0.539,3.305,0.809,5.414,0.809c1.452,0,2.988-0.116,4.605-0.352c1.617-0.234,3.104-0.538,4.465-0.914V94.641z"/>
	<path fill="#FFFFFF" d="M127.055,86.766c3.609,0,6.901-0.292,9.879-0.879c2.976-0.586,5.941-1.417,8.895-2.496v9.07
		c-2.391,1.172-5.344,2.098-8.859,2.777c-3.516,0.679-7.29,1.02-11.32,1.02c-4.781,0-9.271-0.609-13.465-1.828
		c-4.196-1.219-7.828-3.188-10.895-5.906c-3.067-2.718-5.47-6.269-7.207-10.652c-1.737-4.383-2.605-9.668-2.605-15.855
		c0-6.093,0.842-11.379,2.524-15.855c1.684-4.476,3.928-8.215,6.734-11.215c2.806-2.999,6.031-5.249,9.679-6.75
		c3.647-1.5,7.458-2.25,11.434-2.25c3.74,0,7.236,0.622,10.485,1.863c3.25,1.242,6.067,3.199,8.452,5.871
		c2.384,2.672,4.266,6.117,5.646,10.336s2.07,9.281,2.07,15.188c0,0.562,0,1.044,0,1.441c0,0.398-0.024,1.301-0.07,2.707h-46.125
		c0,4.266,0.644,7.887,1.934,10.863c1.289,2.978,3.046,5.391,5.273,7.242c2.226,1.853,4.839,3.199,7.84,4.043
		C120.351,86.344,123.585,86.766,127.055,86.766z M121.306,35.297c-2.516,0-4.853,0.492-7.013,1.477s-4.046,2.32-5.659,4.008
		c-1.614,1.688-2.919,3.668-3.916,5.941c-0.998,2.274-1.614,4.7-1.851,7.277h34.172c0-2.625-0.345-5.073-1.033-7.348
		c-0.688-2.273-1.696-4.254-3.026-5.941c-1.329-1.688-2.966-3.012-4.912-3.973C126.122,35.778,123.868,35.297,121.306,35.297z"/>
	<path fill="#FFFFFF" d="M177.539,36.984h0.211c1.218-1.547,2.566-2.988,4.043-4.324s3.129-2.507,4.957-3.516
		c1.828-1.008,3.832-1.793,6.012-2.355s4.558-0.844,7.137-0.844c3.046,0,5.906,0.422,8.578,1.266s4.992,2.204,6.961,4.078
		c1.969,1.875,3.526,4.324,4.676,7.348c1.148,3.023,1.723,6.739,1.723,11.145V94.5h-10.898V51.539c0-5.766-1.114-9.914-3.34-12.445
		c-2.227-2.531-5.474-3.797-9.738-3.797c-3.751,0-7.383,1.044-10.898,3.129c-3.516,2.086-6.539,4.957-9.07,8.613V94.5h-10.898
		V27.703h8.438L177.539,36.984z"/>
	<path fill="#FFFFFF" d="M244.688,94.5V80.789h13.359V94.5H244.688z"/>
	<path fill="#FFFFFF" d="M293.906,109.407c0,6.141-1.758,10.934-5.273,14.379s-9.094,5.168-16.734,5.168
		c-2.015,0-3.948-0.152-5.801-0.457c-1.852-0.307-3.223-0.623-4.113-0.949v-9.281c1.406,0.375,2.812,0.668,4.219,0.879
		s2.859,0.316,4.359,0.316c4.453,0,7.64-0.914,9.562-2.742c1.921-1.828,2.882-4.688,2.882-8.578V27.703h10.898V109.407z
		 M282.726,12.164V0h10.898v12.164H282.726z"/>
	<path fill="#FFFFFF" d="M354.796,87.117h-0.281c-0.891,1.125-2.016,2.239-3.375,3.34c-1.359,1.102-2.93,2.086-4.711,2.953
		c-1.781,0.868-3.727,1.558-5.836,2.074c-2.109,0.516-4.359,0.773-6.75,0.773c-3.234,0-6.199-0.481-8.895-1.441
		s-5.016-2.366-6.961-4.219c-1.945-1.852-3.457-4.113-4.535-6.785s-1.617-5.695-1.617-9.07c0-3.328,0.598-6.304,1.793-8.93
		c1.195-2.625,2.871-4.852,5.027-6.68s4.746-3.234,7.77-4.219s6.363-1.477,10.02-1.477c3.469,0.047,6.68,0.352,9.633,0.914
		s5.578,1.266,7.875,2.109h0.281V51.82c0-1.828-0.117-3.445-0.352-4.852s-0.633-2.647-1.195-3.727
		c-1.219-2.25-3.164-4.113-5.836-5.59s-6.281-2.215-10.828-2.215c-3.375,0-6.551,0.316-9.527,0.949s-5.941,1.512-8.895,2.637v-9.141
		c1.125-0.562,2.449-1.09,3.973-1.582s3.129-0.914,4.816-1.266s3.469-0.621,5.344-0.809c1.875-0.187,3.75-0.281,5.625-0.281
		c6.75,0,12.27,1.195,16.559,3.586s7.371,5.555,9.246,9.492c0.703,1.501,1.207,3.153,1.512,4.957
		c0.305,1.805,0.457,3.786,0.457,5.941V94.5h-9.141L354.796,87.117z M354.234,65.18c-2.006-0.562-4.387-1.101-7.139-1.617
		c-2.754-0.516-5.787-0.797-9.1-0.844c-4.619,0-8.236,0.984-10.85,2.953s-3.92,4.992-3.92,9.07c0,2.063,0.326,3.867,0.98,5.414
		c0.652,1.547,1.551,2.824,2.695,3.832c1.143,1.009,2.496,1.758,4.059,2.25s3.232,0.738,5.004,0.738c2.334,0,4.504-0.34,6.51-1.02
		c2.006-0.679,3.791-1.487,5.355-2.426c1.562-0.938,2.893-1.874,3.99-2.812c1.096-0.938,1.9-1.663,2.414-2.18V65.18z"/>
	<path fill="#FFFFFF" d="M408.761,83.461c1.611-4.875,3.797-11.085,6.549-18.633l13.385-37.125h10.898L414.341,94.5h-11.301
		l-25.252-66.797h10.898l13.289,37.125c2.639,7.312,4.807,13.524,6.502,18.633H408.761z"/>
	<path fill="#FFFFFF" d="M491.835,87.117h-0.281c-0.891,1.125-2.016,2.239-3.375,3.34c-1.359,1.102-2.93,2.086-4.711,2.953
		c-1.781,0.868-3.727,1.558-5.836,2.074c-2.109,0.516-4.359,0.773-6.75,0.773c-3.234,0-6.199-0.481-8.895-1.441
		s-5.016-2.366-6.961-4.219c-1.945-1.852-3.457-4.113-4.535-6.785s-1.617-5.695-1.617-9.07c0-3.328,0.598-6.304,1.793-8.93
		c1.195-2.625,2.871-4.852,5.027-6.68s4.746-3.234,7.77-4.219s6.363-1.477,10.02-1.477c3.469,0.047,6.68,0.352,9.633,0.914
		s5.578,1.266,7.875,2.109h0.281V51.82c0-1.828-0.117-3.445-0.352-4.852s-0.633-2.647-1.195-3.727
		c-1.219-2.25-3.164-4.113-5.836-5.59s-6.281-2.215-10.828-2.215c-3.375,0-6.551,0.316-9.527,0.949s-5.941,1.512-8.895,2.637v-9.141
		c1.125-0.562,2.449-1.09,3.973-1.582s3.129-0.914,4.816-1.266s3.469-0.621,5.344-0.809c1.875-0.187,3.75-0.281,5.625-0.281
		c6.75,0,12.27,1.195,16.559,3.586s7.371,5.555,9.246,9.492c0.703,1.501,1.207,3.153,1.512,4.957
		c0.305,1.805,0.457,3.786,0.457,5.941V94.5h-9.141L491.835,87.117z M491.273,65.18c-2.006-0.562-4.387-1.101-7.139-1.617
		c-2.754-0.516-5.787-0.797-9.1-0.844c-4.619,0-8.236,0.984-10.85,2.953s-3.92,4.992-3.92,9.07c0,2.063,0.326,3.867,0.98,5.414
		c0.652,1.547,1.551,2.824,2.695,3.832c1.143,1.009,2.496,1.758,4.059,2.25s3.232,0.738,5.004,0.738c2.334,0,4.504-0.34,6.51-1.02
		c2.006-0.679,3.791-1.487,5.355-2.426c1.562-0.938,2.893-1.874,3.99-2.812c1.096-0.938,1.9-1.663,2.414-2.18V65.18z"/>
	<path fill="#039903" d="M547.945,62.297c-1.406,0-2.836,0.082-4.289,0.246c-1.453,0.165-2.754,0.562-3.902,1.195
		s-2.098,1.582-2.848,2.848s-1.125,3-1.125,5.203c0,2.297,0.34,4.406,1.02,6.328c0.68,1.923,1.512,3.751,2.496,5.484
		c0.609,1.079,1.195,2.145,1.758,3.199s1.078,2.134,1.547,3.234c0.469,1.102,0.844,2.274,1.125,3.516s0.422,2.612,0.422,4.114
		c0,1.688-0.342,3.574-1.021,5.66c-0.682,2.084-1.959,4.043-3.834,5.871s-4.451,3.35-7.73,4.57
		c-3.281,1.219-7.477,1.828-12.586,1.828h-2.391v-8.648h0.844c5.109,0,8.941-0.844,11.496-2.531s3.832-4.055,3.832-7.102
		c0-2.205-0.41-4.243-1.23-6.118c-0.82-1.874-1.723-3.75-2.707-5.625c-0.844-1.641-1.582-3.41-2.215-5.309s-0.949-4.159-0.949-6.785
		c0-2.531,0.375-4.734,1.125-6.609c0.75-1.874,1.641-3.421,2.672-4.641c1.031-1.219,2.098-2.168,3.199-2.848
		c1.102-0.679,1.98-1.09,2.637-1.23v-0.281c-0.656-0.141-1.535-0.551-2.637-1.23c-1.102-0.679-2.168-1.628-3.199-2.848
		c-1.031-1.219-1.922-2.766-2.672-4.641c-0.75-1.874-1.125-4.078-1.125-6.609c0-2.766,0.363-5.191,1.09-7.277
		c0.727-2.085,1.582-4.019,2.566-5.801c0.938-1.733,1.746-3.456,2.426-5.168c0.68-1.711,1.02-3.574,1.02-5.59
		c0-3.047-1.266-5.414-3.797-7.102s-6.375-2.531-11.531-2.531h-0.844V0.422h2.391c5.109,0,9.305,0.609,12.586,1.828
		c3.279,1.22,5.855,2.742,7.73,4.57s3.152,3.797,3.834,5.906c0.68,2.109,1.021,4.032,1.021,5.766c0,2.438-0.422,4.665-1.266,6.68
		c-0.844,2.016-1.805,3.984-2.883,5.906c-1.125,1.969-2.109,4.02-2.953,6.152c-0.844,2.134-1.266,4.465-1.266,6.996
		c0,2.204,0.375,3.938,1.125,5.203s1.699,2.215,2.848,2.848s2.449,1.031,3.902,1.195c1.453,0.165,2.883,0.246,4.289,0.246V62.297z"
		/>
</g>
</svg>
